<svg width="1440" height="618" viewBox="0 0 1440 618" fill="none" xmlns="http://www.w3.org/2000/svg">
<g filter="url(#filter0_d_65_2497)">
<path d="M1443 673.457L1443 599.542L1441.23 599.542C1066.89 599.542 763.393 331.801 763.393 1.56028L763.393 -2.97066e-05L679.606 -3.3369e-05L679.606 1.56028C679.606 331.801 376.111 599.542 1.76877 599.542L-2.62068e-05 599.542L-2.94377e-05 673.457L1.76877 673.457C376.111 673.457 679.606 941.198 679.606 1271.44C679.606 1601.68 679.606 1273 679.606 1273L763.393 1273C763.393 1273 763.393 1601.68 763.393 1271.44C763.393 941.198 1066.89 673.457 1441.23 673.457L1443 673.457Z" fill="#F4F4F4"/>
</g>
<defs>
<filter id="filter0_d_65_2497" x="-4" y="0" width="1451" height="1426.62" filterUnits="userSpaceOnUse" color-interpolation-filters="sRGB">
<feFlood flood-opacity="0" result="BackgroundImageFix"/>
<feColorMatrix in="SourceAlpha" type="matrix" values="0 0 0 0 0 0 0 0 0 0 0 0 0 0 0 0 0 0 127 0" result="hardAlpha"/>
<feOffset dy="4"/>
<feGaussianBlur stdDeviation="2"/>
<feComposite in2="hardAlpha" operator="out"/>
<feColorMatrix type="matrix" values="0 0 0 0 0 0 0 0 0 0 0 0 0 0 0 0 0 0 0.25 0"/>
<feBlend mode="normal" in2="BackgroundImageFix" result="effect1_dropShadow_65_2497"/>
<feBlend mode="normal" in="SourceGraphic" in2="effect1_dropShadow_65_2497" result="shape"/>
</filter>
</defs>
</svg>
